<svg xmlns="http://www.w3.org/2000/svg" xmlns:xlink="http://www.w3.org/1999/xlink" version="1.1" width="170.079pt" height="141.732pt" viewBox="0 0 170.079 141.732">
<g enable-background="new">
<clipPath id="cp0">
<path transform="matrix(1,0,0,-1,85.039,70.866)" d="M -85.04042 -70.867 L -85.04042 70.867 L 85.04042 70.867 L 85.04042 -70.867 Z M 85.04042 70.867 "/>
</clipPath>
<g clip-path="url(#cp0)">
<path transform="matrix(1,0,0,-1,85.039,70.866)" d="M -60.12816 -34.82796 L -60.12816 34.82272 L -.00455 .33737 L -.00455 -69.31331 Z M -.00455 .33737 "/>
<path transform="matrix(1,0,0,-1,85.039,70.866)" stroke-width=".3985" stroke-linecap="butt" stroke-miterlimit="10" stroke-linejoin="miter" fill="none" stroke="#000000" d="M -60.12816 -34.82796 L -60.12816 34.82272 L -.00455 .33737 L -.00455 -69.31331 Z M -.00455 .33737 "/>
<path transform="matrix(1,0,0,-1,85.039,70.866)" d="M 60.12816 -34.82796 L 60.12816 34.82272 L .00455 .33737 L .00455 -69.31331 Z M .00455 .33737 "/>
<path transform="matrix(1,0,0,-1,85.039,70.866)" stroke-width=".3985" stroke-linecap="butt" stroke-miterlimit="10" stroke-linejoin="miter" fill="none" stroke="#000000" d="M 60.12816 -34.82796 L 60.12816 34.82272 L .00455 .33737 L .00455 -69.31331 Z M .00455 .33737 "/>
<path transform="matrix(1,0,0,-1,85.039,70.866)" d="M 0 69.31589 L -60.12361 34.83054 L 0 .34518 L 60.12361 34.83054 Z M 0 .34518 "/>
<path transform="matrix(1,0,0,-1,85.039,70.866)" stroke-width=".3985" stroke-linecap="butt" stroke-miterlimit="10" stroke-linejoin="miter" fill="none" stroke="#000000" d="M 0 69.31589 L -60.12361 34.83054 L 0 .34518 L 60.12361 34.83054 Z M 0 .34518 "/>
<path transform="matrix(1,0,0,-1,85.039,70.866)" d="M -50.10757 -40.5755 L -42.09122 -45.1735 C -40.9843 -45.80838 -40.08699 -45.28355 -40.08699 -44.00124 L -40.08696 -25.42802 C -40.08696 -24.1457 -40.98427 -22.59152 -42.09119 -21.95662 L -58.12393 -12.76062 C -59.23085 -12.12573 -60.12816 -12.65056 -60.12816 -13.93288 L -60.12816 -32.50612 C -60.12816 -33.78844 -59.23085 -35.34264 -58.12393 -35.97752 Z " fill="#414141"/>
<path transform="matrix(1,0,0,-1,85.039,70.866)" stroke-width=".79701" stroke-linecap="butt" stroke-miterlimit="10" stroke-linejoin="miter" fill="none" stroke="#000000" d="M -50.10757 -40.5755 L -42.09122 -45.1735 C -40.9843 -45.80838 -40.08699 -45.28355 -40.08699 -44.00124 L -40.08696 -25.42802 C -40.08696 -24.1457 -40.98427 -22.59152 -42.09119 -21.95662 L -58.12393 -12.76062 C -59.23085 -12.12573 -60.12816 -12.65056 -60.12816 -13.93288 L -60.12816 -32.50612 C -60.12816 -33.78844 -59.23085 -35.34264 -58.12393 -35.97752 Z "/>
<text xml:space="preserve" transform="matrix(.707 .40552 -0 .81903 9.719103 120.99102)" font-size="9.9626" font-family="CMR10"><tspan y="-40.28" x="33.171">6</tspan></text>
<path transform="matrix(1,0,0,-1,85.039,70.866)" d="M 50.10757 -40.5755 L 42.09122 -45.1735 C 40.9843 -45.80838 40.08699 -45.28355 40.08699 -44.00124 L 40.08696 -25.42802 C 40.08696 -24.1457 40.98427 -22.59152 42.09119 -21.95662 L 58.12393 -12.76062 C 59.23085 -12.12573 60.12816 -12.65056 60.12816 -13.93288 L 60.12816 -32.50612 C 60.12816 -33.78844 59.23085 -35.34264 58.12393 -35.97752 Z " fill="#97d838"/>
<path transform="matrix(1,0,0,-1,85.039,70.866)" stroke-width=".79701" stroke-linecap="butt" stroke-miterlimit="10" stroke-linejoin="miter" fill="none" stroke="#000000" d="M 50.10757 -40.5755 L 42.09122 -45.1735 C 40.9843 -45.80838 40.08699 -45.28355 40.08699 -44.00124 L 40.08696 -25.42802 C 40.08696 -24.1457 40.98427 -22.59152 42.09119 -21.95662 L 58.12393 -12.76062 C 59.23085 -12.12573 60.12816 -12.65056 60.12816 -13.93288 L 60.12816 -32.50612 C 60.12816 -33.78844 59.23085 -35.34264 58.12393 -35.97752 Z "/>
<text xml:space="preserve" transform="matrix(.707 -.40552 -0 .81903 38.565828 188.36702)" font-size="9.9626" font-family="CMR10"><tspan y="-37.25" x="131.624 136.60529">17</tspan></text>
<path transform="matrix(1,0,0,-1,85.039,70.866)" d="M 10.02058 63.56834 L 18.03694 58.97035 C 19.14386 58.33545 19.14386 57.3061 18.03694 56.6712 L 2.00426 47.47522 C .89734 46.84033 -.89728 46.84033 -2.0042 47.47522 L -18.03697 56.67119 C -19.14389 57.30609 -19.14389 58.33543 -18.03697 58.97034 L -2.00423 68.16632 C -.89731 68.80121 .89731 68.80121 2.00423 68.16632 Z " fill="#ca4137"/>
<path transform="matrix(1,0,0,-1,85.039,70.866)" stroke-width=".79701" stroke-linecap="butt" stroke-miterlimit="10" stroke-linejoin="miter" fill="none" stroke="#000000" d="M 10.02058 63.56834 L 18.03694 58.97035 C 19.14386 58.33545 19.14386 57.3061 18.03694 56.6712 L 2.00426 47.47522 C .89734 46.84033 -.89728 46.84033 -2.0042 47.47522 L -18.03697 56.67119 C -19.14389 57.30609 -19.14389 58.33543 -18.03697 58.97034 L -2.00423 68.16632 C -.89731 68.80121 .89731 68.80121 2.00423 68.16632 Z "/>
<text xml:space="preserve" transform="matrix(.707 -.40552 .707 .40552 113.18194 101.18291)" font-size="9.9626" font-family="CMR10"><tspan y="-125.364" x="83.787 88.7683">20</tspan></text>
<path transform="matrix(1,0,0,-1,85.039,70.866)" d="M -50.10757 -17.3586 L -42.09122 -21.95659 C -40.9843 -22.59149 -40.08699 -22.06665 -40.08699 -20.78433 L -40.08696 -2.21112 C -40.08696 -.9288 -40.98427 .62537 -42.09119 1.26027 L -58.12393 10.45627 C -59.23085 11.09116 -60.12816 10.56633 -60.12816 9.28401 L -60.12816 -9.28922 C -60.12816 -10.57153 -59.23085 -12.12573 -58.12393 -12.76062 Z " fill="#414141"/>
<path transform="matrix(1,0,0,-1,85.039,70.866)" stroke-width=".79701" stroke-linecap="butt" stroke-miterlimit="10" stroke-linejoin="miter" fill="none" stroke="#000000" d="M -50.10757 -17.3586 L -42.09122 -21.95659 C -40.9843 -22.59149 -40.08699 -22.06665 -40.08699 -20.78433 L -40.08696 -2.21112 C -40.08696 -.9288 -40.98427 .62537 -42.09119 1.26027 L -58.12393 10.45627 C -59.23085 11.09116 -60.12816 10.56633 -60.12816 9.28401 L -60.12816 -9.28922 C -60.12816 -10.57153 -59.23085 -12.12573 -58.12393 -12.76062 Z "/>
<text xml:space="preserve" transform="matrix(.707 .40552 -0 .81903 9.719103 116.789447)" font-size="9.9626" font-family="CMR10"><tspan y="-63.497" x="33.171">3</tspan></text>
<path transform="matrix(1,0,0,-1,85.039,70.866)" d="M 50.10757 -17.3586 L 42.09122 -21.95659 C 40.9843 -22.59149 40.08699 -22.06665 40.08699 -20.78433 L 40.08696 -2.21112 C 40.08696 -.9288 40.98427 .62537 42.09119 1.26027 L 58.12393 10.45627 C 59.23085 11.09116 60.12816 10.56633 60.12816 9.28401 L 60.12816 -9.28922 C 60.12816 -10.57153 59.23085 -12.12573 58.12393 -12.76062 Z " fill="#97d838"/>
<path transform="matrix(1,0,0,-1,85.039,70.866)" stroke-width=".79701" stroke-linecap="butt" stroke-miterlimit="10" stroke-linejoin="miter" fill="none" stroke="#000000" d="M 50.10757 -17.3586 L 42.09122 -21.95659 C 40.9843 -22.59149 40.08699 -22.06665 40.08699 -20.78433 L 40.08696 -2.21112 C 40.08696 -.9288 40.98427 .62537 42.09119 1.26027 L 58.12393 10.45627 C 59.23085 11.09116 60.12816 10.56633 60.12816 9.28401 L 60.12816 -9.28922 C 60.12816 -10.57153 59.23085 -12.12573 58.12393 -12.76062 Z "/>
<text xml:space="preserve" transform="matrix(.707 -.40552 -0 .81903 38.565828 184.16544)" font-size="9.9626" font-family="CMR10"><tspan y="-60.467" x="131.624 136.60529">14</tspan></text>
<path transform="matrix(1,0,0,-1,85.039,70.866)" d="M -10.0206 52.07321 L -2.00426 47.47522 C -.89734 46.84033 -.89734 45.81097 -2.00426 45.17607 L -18.03694 35.9801 C -19.14386 35.3452 -20.93848 35.3452 -22.0454 35.9801 L -38.07819 45.17606 C -39.1851 45.81096 -39.1851 46.84032 -38.07819 47.4752 L -22.04543 56.67119 C -20.9385 57.30609 -19.14389 57.30609 -18.03697 56.67119 Z " fill="#414141"/>
<path transform="matrix(1,0,0,-1,85.039,70.866)" stroke-width=".79701" stroke-linecap="butt" stroke-miterlimit="10" stroke-linejoin="miter" fill="none" stroke="#000000" d="M -10.0206 52.07321 L -2.00426 47.47522 C -.89734 46.84033 -.89734 45.81097 -2.00426 45.17607 L -18.03694 35.9801 C -19.14386 35.3452 -20.93848 35.3452 -22.0454 35.9801 L -38.07819 45.17606 C -39.1851 45.81096 -39.1851 46.84032 -38.07819 47.4752 L -22.04543 56.67119 C -20.9385 57.30609 -19.14389 57.30609 -18.03697 56.67119 Z "/>
<text xml:space="preserve" transform="matrix(.707 -.40552 .707 .40552 99.18297 99.889438)" font-size="9.9626" font-family="CMR10"><tspan y="-113.869" x="63.746 68.727298">19</tspan></text>
<path transform="matrix(1,0,0,-1,85.039,70.866)" d="M -50.10757 5.85828 L -42.09122 1.26028 C -40.9843 .62538 -40.08699 1.15022 -40.08699 2.43254 L -40.08696 21.00575 C -40.08696 22.28807 -40.98427 23.84225 -42.09119 24.47716 L -58.12393 33.67316 C -59.23085 34.30804 -60.12816 33.78322 -60.12816 32.5009 L -60.12816 13.92764 C -60.12816 12.64534 -59.23085 11.09114 -58.12393 10.45625 Z " fill="#414141"/>
<path transform="matrix(1,0,0,-1,85.039,70.866)" stroke-width=".79701" stroke-linecap="butt" stroke-miterlimit="10" stroke-linejoin="miter" fill="none" stroke="#000000" d="M -50.10757 5.85828 L -42.09122 1.26028 C -40.9843 .62538 -40.08699 1.15022 -40.08699 2.43254 L -40.08696 21.00575 C -40.08696 22.28807 -40.98427 23.84225 -42.09119 24.47716 L -58.12393 33.67316 C -59.23085 34.30804 -60.12816 33.78322 -60.12816 32.5009 L -60.12816 13.92764 C -60.12816 12.64534 -59.23085 11.09114 -58.12393 10.45625 Z "/>
<text xml:space="preserve" transform="matrix(.707 .40552 -0 .81903 9.719103 112.58804)" font-size="9.9626" font-family="CMR10"><tspan y="-86.713" x="33.171">0</tspan></text>
<path transform="matrix(1,0,0,-1,85.039,70.866)" d="M 50.10757 5.85828 L 42.09122 1.26028 C 40.9843 .62538 40.08699 1.15022 40.08699 2.43254 L 40.08696 21.00575 C 40.08696 22.28807 40.98427 23.84225 42.09119 24.47716 L 58.12393 33.67316 C 59.23085 34.30804 60.12816 33.78322 60.12816 32.5009 L 60.12816 13.92764 C 60.12816 12.64534 59.23085 11.09114 58.12393 10.45625 Z " fill="#414141"/>
<path transform="matrix(1,0,0,-1,85.039,70.866)" stroke-width=".79701" stroke-linecap="butt" stroke-miterlimit="10" stroke-linejoin="miter" fill="none" stroke="#000000" d="M 50.10757 5.85828 L 42.09122 1.26028 C 40.9843 .62538 40.08699 1.15022 40.08699 2.43254 L 40.08696 21.00575 C 40.08696 22.28807 40.98427 23.84225 42.09119 24.47716 L 58.12393 33.67316 C 59.23085 34.30804 60.12816 33.78322 60.12816 32.5009 L 60.12816 13.92764 C 60.12816 12.64534 59.23085 11.09114 58.12393 10.45625 Z "/>
<text xml:space="preserve" transform="matrix(.707 -.40552 -0 .81903 38.565828 179.96405)" font-size="9.9626" font-family="CMR10"><tspan y="-83.683" x="131.624 136.60529">11</tspan></text>
<path transform="matrix(1,0,0,-1,85.039,70.866)" d="M -30.0618 40.57811 L -22.04544 35.98013 C -20.93852 35.34523 -20.93852 34.31587 -22.04544 33.68098 L -38.07814 24.485 C -39.18506 23.8501 -40.97968 23.8501 -42.0866 24.485 L -58.11937 33.68097 C -59.22629 34.31586 -59.22629 35.34521 -58.11937 35.98012 L -42.08662 45.17609 C -40.9797 45.81099 -39.18509 45.81099 -38.07817 45.17609 Z " fill="#414141"/>
<path transform="matrix(1,0,0,-1,85.039,70.866)" stroke-width=".79701" stroke-linecap="butt" stroke-miterlimit="10" stroke-linejoin="miter" fill="none" stroke="#000000" d="M -30.0618 40.57811 L -22.04544 35.98013 C -20.93852 35.34523 -20.93852 34.31587 -22.04544 33.68098 L -38.07814 24.485 C -39.18506 23.8501 -40.97968 23.8501 -42.0866 24.485 L -58.11937 33.68097 C -59.22629 34.31586 -59.22629 35.34521 -58.11937 35.98012 L -42.08662 45.17609 C -40.9797 45.81099 -39.18509 45.81099 -38.07817 45.17609 Z "/>
<text xml:space="preserve" transform="matrix(.707 -.40552 .707 .40552 85.18398 98.595958)" font-size="9.9626" font-family="CMR10"><tspan y="-102.374" x="43.705 48.686304">18</tspan></text>
<path transform="matrix(1,0,0,-1,85.039,70.866)" d="M -30.06636 -52.07063 L -22.05 -56.66862 C -20.94308 -57.30351 -20.04578 -56.77869 -20.04578 -55.49637 L -20.04575 -36.92316 C -20.04575 -35.64084 -20.94305 -34.08664 -22.04997 -33.45175 L -38.08273 -24.25575 C -39.18964 -23.62085 -40.08696 -24.14569 -40.08696 -25.42801 L -40.08696 -44.00125 C -40.08696 -45.28357 -39.18964 -46.83775 -38.08273 -47.47266 Z " fill="#414141"/>
<path transform="matrix(1,0,0,-1,85.039,70.866)" stroke-width=".79701" stroke-linecap="butt" stroke-miterlimit="10" stroke-linejoin="miter" fill="none" stroke="#000000" d="M -30.06636 -52.07063 L -22.05 -56.66862 C -20.94308 -57.30351 -20.04578 -56.77869 -20.04578 -55.49637 L -20.04575 -36.92316 C -20.04575 -35.64084 -20.94305 -34.08664 -22.04997 -33.45175 L -38.08273 -24.25575 C -39.18964 -23.62085 -40.08696 -24.14569 -40.08696 -25.42801 L -40.08696 -44.00125 C -40.08696 -45.28357 -39.18964 -46.83775 -38.08273 -47.47266 Z "/>
<text xml:space="preserve" transform="matrix(.707 .40552 -0 .81903 15.591114 114.944248)" font-size="9.9626" font-family="CMR10"><tspan y="-28.785" x="53.212">7</tspan></text>
<path transform="matrix(1,0,0,-1,85.039,70.866)" d="M 30.06636 -52.07063 L 22.05 -56.66862 C 20.94308 -57.30351 20.04578 -56.77869 20.04578 -55.49637 L 20.04575 -36.92316 C 20.04575 -35.64084 20.94305 -34.08664 22.04997 -33.45175 L 38.08273 -24.25575 C 39.18964 -23.62085 40.08696 -24.14569 40.08696 -25.42801 L 40.08696 -44.00125 C 40.08696 -45.28357 39.18964 -46.83775 38.08273 -47.47266 Z " fill="#97d838"/>
<path transform="matrix(1,0,0,-1,85.039,70.866)" stroke-width=".79701" stroke-linecap="butt" stroke-miterlimit="10" stroke-linejoin="miter" fill="none" stroke="#000000" d="M 30.06636 -52.07063 L 22.05 -56.66862 C 20.94308 -57.30351 20.04578 -56.77869 20.04578 -55.49637 L 20.04575 -36.92316 C 20.04575 -35.64084 20.94305 -34.08664 22.04997 -33.45175 L 38.08273 -24.25575 C 39.18964 -23.62085 40.08696 -24.14569 40.08696 -25.42801 L 40.08696 -44.00125 C 40.08696 -45.28357 39.18964 -46.83775 38.08273 -47.47266 Z "/>
<text xml:space="preserve" transform="matrix(.707 -.40552 -0 .81903 32.693819 182.32025)" font-size="9.9626" font-family="CMR10"><tspan y="-25.755" x="111.583 116.5643">16</tspan></text>
<path transform="matrix(1,0,0,-1,85.039,70.866)" d="M 30.0618 52.07321 L 38.07816 47.47522 C 39.18507 46.84033 39.18507 45.81097 38.07816 45.17607 L 22.04546 35.9801 C 20.93854 35.3452 19.14392 35.3452 18.037 35.9801 L 2.00423 45.17606 C .89731 45.81096 .89731 46.84032 2.00423 47.4752 L 18.03697 56.67119 C 19.14389 57.30609 20.9385 57.30609 22.04543 56.67119 Z " fill="#97d838"/>
<path transform="matrix(1,0,0,-1,85.039,70.866)" stroke-width=".79701" stroke-linecap="butt" stroke-miterlimit="10" stroke-linejoin="miter" fill="none" stroke="#000000" d="M 30.0618 52.07321 L 38.07816 47.47522 C 39.18507 46.84033 39.18507 45.81097 38.07816 45.17607 L 22.04546 35.9801 C 20.93854 35.3452 19.14392 35.3452 18.037 35.9801 L 2.00423 45.17606 C .89731 45.81096 .89731 46.84032 2.00423 47.4752 L 18.03697 56.67119 C 19.14389 57.30609 20.9385 57.30609 22.04543 56.67119 Z "/>
<text xml:space="preserve" transform="matrix(.707 -.40552 .707 .40552 110.92699 116.143489)" font-size="9.9626" font-family="CMR10"><tspan y="-113.869" x="103.828 108.8093">23</tspan></text>
<path transform="matrix(1,0,0,-1,85.039,70.866)" d="M -30.06636 -28.85373 L -22.05 -33.45172 C -20.94308 -34.08661 -20.04578 -33.56178 -20.04578 -32.27946 L -20.04575 -13.70625 C -20.04575 -12.42393 -20.94305 -10.86974 -22.04997 -10.23485 L -38.08273 -1.03885 C -39.18964 -.40396 -40.08696 -.92879 -40.08696 -2.2111 L -40.08696 -20.78435 C -40.08696 -22.06667 -39.18964 -23.62085 -38.08273 -24.25575 Z " fill="#414141"/>
<path transform="matrix(1,0,0,-1,85.039,70.866)" stroke-width=".79701" stroke-linecap="butt" stroke-miterlimit="10" stroke-linejoin="miter" fill="none" stroke="#000000" d="M -30.06636 -28.85373 L -22.05 -33.45172 C -20.94308 -34.08661 -20.04578 -33.56178 -20.04578 -32.27946 L -20.04575 -13.70625 C -20.04575 -12.42393 -20.94305 -10.86974 -22.04997 -10.23485 L -38.08273 -1.03885 C -39.18964 -.40396 -40.08696 -.92879 -40.08696 -2.2111 L -40.08696 -20.78435 C -40.08696 -22.06667 -39.18964 -23.62085 -38.08273 -24.25575 Z "/>
<text xml:space="preserve" transform="matrix(.707 .40552 -0 .81903 15.591114 110.74266)" font-size="9.9626" font-family="CMR10"><tspan y="-52.002" x="53.212">4</tspan></text>
<path transform="matrix(1,0,0,-1,85.039,70.866)" d="M 30.06636 -28.85373 L 22.05 -33.45172 C 20.94308 -34.08661 20.04578 -33.56178 20.04578 -32.27946 L 20.04575 -13.70625 C 20.04575 -12.42393 20.94305 -10.86974 22.04997 -10.23485 L 38.08273 -1.03885 C 39.18964 -.40396 40.08696 -.92879 40.08696 -2.2111 L 40.08696 -20.78435 C 40.08696 -22.06667 39.18964 -23.62085 38.08273 -24.25575 Z " fill="#97d838"/>
<path transform="matrix(1,0,0,-1,85.039,70.866)" stroke-width=".79701" stroke-linecap="butt" stroke-miterlimit="10" stroke-linejoin="miter" fill="none" stroke="#000000" d="M 30.06636 -28.85373 L 22.05 -33.45172 C 20.94308 -34.08661 20.04578 -33.56178 20.04578 -32.27946 L 20.04575 -13.70625 C 20.04575 -12.42393 20.94305 -10.86974 22.04997 -10.23485 L 38.08273 -1.03885 C 39.18964 -.40396 40.08696 -.92879 40.08696 -2.2111 L 40.08696 -20.78435 C 40.08696 -22.06667 39.18964 -23.62085 38.08273 -24.25575 Z "/>
<text xml:space="preserve" transform="matrix(.707 -.40552 -0 .81903 32.693819 178.11867)" font-size="9.9626" font-family="CMR10"><tspan y="-48.972" x="111.583 116.5643">13</tspan></text>
<path transform="matrix(1,0,0,-1,85.039,70.866)" d="M 10.02058 40.57808 L 18.03694 35.9801 C 19.14386 35.3452 19.14386 34.31584 18.03694 33.68095 L 2.00426 24.48497 C .89734 23.85007 -.89728 23.85007 -2.0042 24.48497 L -18.03697 33.68094 C -19.14389 34.31583 -19.14389 35.34518 -18.03697 35.98009 L -2.00423 45.17606 C -.89731 45.81096 .89731 45.81096 2.00423 45.17606 Z " fill="#ca4137"/>
<path transform="matrix(1,0,0,-1,85.039,70.866)" stroke-width=".79701" stroke-linecap="butt" stroke-miterlimit="10" stroke-linejoin="miter" fill="none" stroke="#000000" d="M 10.02058 40.57808 L 18.03694 35.9801 C 19.14386 35.3452 19.14386 34.31584 18.03694 33.68095 L 2.00426 24.48497 C .89734 23.85007 -.89728 23.85007 -2.0042 24.48497 L -18.03697 33.68094 C -19.14389 34.31583 -19.14389 35.34518 -18.03697 35.98009 L -2.00423 45.17606 C -.89731 45.81096 .89731 45.81096 2.00423 45.17606 Z "/>
<text xml:space="preserve" transform="matrix(.707 -.40552 .707 .40552 96.92801 114.850009)" font-size="9.9626" font-family="CMR10"><tspan y="-102.374" x="83.787 88.7683">22</tspan></text>
<path transform="matrix(1,0,0,-1,85.039,70.866)" d="M -30.06636 -5.63684 L -22.05 -10.23483 C -20.94308 -10.86972 -20.04578 -10.3449 -20.04578 -9.06258 L -20.04575 9.51062 C -20.04575 10.79294 -20.94305 12.34714 -22.04997 12.98203 L -38.08273 22.17802 C -39.18964 22.81291 -40.08696 22.28809 -40.08696 21.00577 L -40.08696 2.43253 C -40.08696 1.1502 -39.18964 -.40398 -38.08273 -1.03886 Z " fill="#414141"/>
<path transform="matrix(1,0,0,-1,85.039,70.866)" stroke-width=".79701" stroke-linecap="butt" stroke-miterlimit="10" stroke-linejoin="miter" fill="none" stroke="#000000" d="M -30.06636 -5.63684 L -22.05 -10.23483 C -20.94308 -10.86972 -20.04578 -10.3449 -20.04578 -9.06258 L -20.04575 9.51062 C -20.04575 10.79294 -20.94305 12.34714 -22.04997 12.98203 L -38.08273 22.17802 C -39.18964 22.81291 -40.08696 22.28809 -40.08696 21.00577 L -40.08696 2.43253 C -40.08696 1.1502 -39.18964 -.40398 -38.08273 -1.03886 Z "/>
<text xml:space="preserve" transform="matrix(.707 .40552 -0 .81903 15.591114 106.54127)" font-size="9.9626" font-family="CMR10"><tspan y="-75.218" x="53.212">1</tspan></text>
<path transform="matrix(1,0,0,-1,85.039,70.866)" d="M 30.06636 -5.63684 L 22.05 -10.23483 C 20.94308 -10.86972 20.04578 -10.3449 20.04578 -9.06258 L 20.04575 9.51062 C 20.04575 10.79294 20.94305 12.34714 22.04997 12.98203 L 38.08273 22.17802 C 39.18964 22.81291 40.08696 22.28809 40.08696 21.00577 L 40.08696 2.43253 C 40.08696 1.1502 39.18964 -.40398 38.08273 -1.03886 Z " fill="#414141"/>
<path transform="matrix(1,0,0,-1,85.039,70.866)" stroke-width=".79701" stroke-linecap="butt" stroke-miterlimit="10" stroke-linejoin="miter" fill="none" stroke="#000000" d="M 30.06636 -5.63684 L 22.05 -10.23483 C 20.94308 -10.86972 20.04578 -10.3449 20.04578 -9.06258 L 20.04575 9.51062 C 20.04575 10.79294 20.94305 12.34714 22.04997 12.98203 L 38.08273 22.17802 C 39.18964 22.81291 40.08696 22.28809 40.08696 21.00577 L 40.08696 2.43253 C 40.08696 1.1502 39.18964 -.40398 38.08273 -1.03886 Z "/>
<text xml:space="preserve" transform="matrix(.707 -.40552 -0 .81903 32.693819 173.91727)" font-size="9.9626" font-family="CMR10"><tspan y="-72.188" x="111.583 116.5643">10</tspan></text>
<path transform="matrix(1,0,0,-1,85.039,70.866)" d="M -10.02058 29.083 L -2.00424 24.485 C -.89732 23.8501 -.89732 22.82074 -2.00424 22.18585 L -18.03693 12.98987 C -19.14384 12.35498 -20.93846 12.35498 -22.04538 12.98987 L -38.07817 22.18584 C -39.18509 22.82072 -39.18509 23.85008 -38.07817 24.48499 L -22.04541 33.68097 C -20.93849 34.31586 -19.14388 34.31586 -18.03696 33.68097 Z " fill="#ca4137"/>
<path transform="matrix(1,0,0,-1,85.039,70.866)" stroke-width=".79701" stroke-linecap="butt" stroke-miterlimit="10" stroke-linejoin="miter" fill="none" stroke="#000000" d="M -10.02058 29.083 L -2.00424 24.485 C -.89732 23.8501 -.89732 22.82074 -2.00424 22.18585 L -18.03693 12.98987 C -19.14384 12.35498 -20.93846 12.35498 -22.04538 12.98987 L -38.07817 22.18584 C -39.18509 22.82072 -39.18509 23.85008 -38.07817 24.48499 L -22.04541 33.68097 C -20.93849 34.31586 -19.14388 34.31586 -18.03696 33.68097 Z "/>
<text xml:space="preserve" transform="matrix(.707 -.40552 .707 .40552 82.92903 113.55652)" font-size="9.9626" font-family="CMR10"><tspan y="-90.879" x="63.746 68.727298">21</tspan></text>
<path transform="matrix(1,0,0,-1,85.039,70.866)" d="M -10.02516 -63.56572 L -2.00882 -68.16371 C -.9019 -68.79861 -.00458 -68.27377 -.00458 -66.99146 L -.00455 -48.41824 C -.00455 -47.13593 -.90187 -45.58174 -2.00879 -44.94684 L -18.04153 -35.75085 C -19.14845 -35.11595 -20.04576 -35.6408 -20.04576 -36.92311 L -20.04576 -55.49635 C -20.04576 -56.77867 -19.14845 -58.33286 -18.04153 -58.96776 Z " fill="#97d838"/>
<path transform="matrix(1,0,0,-1,85.039,70.866)" stroke-width=".79701" stroke-linecap="butt" stroke-miterlimit="10" stroke-linejoin="miter" fill="none" stroke="#000000" d="M -10.02516 -63.56572 L -2.00882 -68.16371 C -.9019 -68.79861 -.00458 -68.27377 -.00458 -66.99146 L -.00455 -48.41824 C -.00455 -47.13593 -.90187 -45.58174 -2.00879 -44.94684 L -18.04153 -35.75085 C -19.14845 -35.11595 -20.04576 -35.6408 -20.04576 -36.92311 L -20.04576 -55.49635 C -20.04576 -56.77867 -19.14845 -58.33286 -18.04153 -58.96776 Z "/>
<text xml:space="preserve" transform="matrix(.707 .40552 -0 .81903 21.463128 108.89748)" font-size="9.9626" font-family="CMR10"><tspan y="-17.29" x="73.253">8</tspan></text>
<path transform="matrix(1,0,0,-1,85.039,70.866)" d="M 10.02516 -63.56572 L 2.00882 -68.16371 C .9019 -68.79861 .00458 -68.27377 .00458 -66.99146 L .00455 -48.41824 C .00455 -47.13593 .90187 -45.58174 2.00879 -44.94684 L 18.04153 -35.75085 C 19.14845 -35.11595 20.04576 -35.6408 20.04576 -36.92311 L 20.04576 -55.49635 C 20.04576 -56.77867 19.14845 -58.33286 18.04153 -58.96776 Z " fill="#414141"/>
<path transform="matrix(1,0,0,-1,85.039,70.866)" stroke-width=".79701" stroke-linecap="butt" stroke-miterlimit="10" stroke-linejoin="miter" fill="none" stroke="#000000" d="M 10.02516 -63.56572 L 2.00882 -68.16371 C .9019 -68.79861 .00458 -68.27377 .00458 -66.99146 L .00455 -48.41824 C .00455 -47.13593 .90187 -45.58174 2.00879 -44.94684 L 18.04153 -35.75085 C 19.14845 -35.11595 20.04576 -35.6408 20.04576 -36.92311 L 20.04576 -55.49635 C 20.04576 -56.77867 19.14845 -58.33286 18.04153 -58.96776 Z "/>
<text xml:space="preserve" transform="matrix(.707 -.40552 -0 .81903 26.821808 176.27349)" font-size="9.9626" font-family="CMR10"><tspan y="-14.26" x="91.542 96.5233">15</tspan></text>
<path transform="matrix(1,0,0,-1,85.039,70.866)" d="M 50.103 40.57811 L 58.11934 35.98013 C 59.22626 35.34523 59.22626 34.31587 58.11934 33.68098 L 42.08665 24.485 C 40.97974 23.8501 39.18512 23.8501 38.0782 24.485 L 22.04541 33.68097 C 20.93849 34.31586 20.93849 35.34521 22.04541 35.98012 L 38.07817 45.17609 C 39.18509 45.81099 40.9797 45.81099 42.08662 45.17609 Z " fill="#414141"/>
<path transform="matrix(1,0,0,-1,85.039,70.866)" stroke-width=".79701" stroke-linecap="butt" stroke-miterlimit="10" stroke-linejoin="miter" fill="none" stroke="#000000" d="M 50.103 40.57811 L 58.11934 35.98013 C 59.22626 35.34523 59.22626 34.31587 58.11934 33.68098 L 42.08665 24.485 C 40.97974 23.8501 39.18512 23.8501 38.0782 24.485 L 22.04541 33.68097 C 20.93849 34.31586 20.93849 35.34521 22.04541 35.98012 L 38.07817 45.17609 C 39.18509 45.81099 40.9797 45.81099 42.08662 45.17609 Z "/>
<text xml:space="preserve" transform="matrix(.707 -.40552 .707 .40552 108.672039 131.10407)" font-size="9.9626" font-family="CMR10"><tspan y="-102.374" x="123.869 128.8503">26</tspan></text>
<path transform="matrix(1,0,0,-1,85.039,70.866)" d="M -10.02516 -40.34883 L -2.00882 -44.94681 C -.9019 -45.58171 -.00458 -45.05688 -.00458 -43.77457 L -.00455 -25.20134 C -.00455 -23.91902 -.90187 -22.36484 -2.00879 -21.72995 L -18.04153 -12.53395 C -19.14845 -11.89905 -20.04576 -12.42389 -20.04576 -13.7062 L -20.04576 -32.27945 C -20.04576 -33.56177 -19.14845 -35.11595 -18.04153 -35.75085 Z " fill="#414141"/>
<path transform="matrix(1,0,0,-1,85.039,70.866)" stroke-width=".79701" stroke-linecap="butt" stroke-miterlimit="10" stroke-linejoin="miter" fill="none" stroke="#000000" d="M -10.02516 -40.34883 L -2.00882 -44.94681 C -.9019 -45.58171 -.00458 -45.05688 -.00458 -43.77457 L -.00455 -25.20134 C -.00455 -23.91902 -.90187 -22.36484 -2.00879 -21.72995 L -18.04153 -12.53395 C -19.14845 -11.89905 -20.04576 -12.42389 -20.04576 -13.7062 L -20.04576 -32.27945 C -20.04576 -33.56177 -19.14845 -35.11595 -18.04153 -35.75085 Z "/>
<text xml:space="preserve" transform="matrix(.707 .40552 -0 .81903 21.463128 104.69589)" font-size="9.9626" font-family="CMR10"><tspan y="-40.507" x="73.253">5</tspan></text>
<path transform="matrix(1,0,0,-1,85.039,70.866)" d="M 10.02516 -40.34883 L 2.00882 -44.94681 C .9019 -45.58171 .00458 -45.05688 .00458 -43.77457 L .00455 -25.20134 C .00455 -23.91902 .90187 -22.36484 2.00879 -21.72995 L 18.04153 -12.53395 C 19.14845 -11.89905 20.04576 -12.42389 20.04576 -13.7062 L 20.04576 -32.27945 C 20.04576 -33.56177 19.14845 -35.11595 18.04153 -35.75085 Z " fill="#ca4137"/>
<path transform="matrix(1,0,0,-1,85.039,70.866)" stroke-width=".79701" stroke-linecap="butt" stroke-miterlimit="10" stroke-linejoin="miter" fill="none" stroke="#000000" d="M 10.02516 -40.34883 L 2.00882 -44.94681 C .9019 -45.58171 .00458 -45.05688 .00458 -43.77457 L .00455 -25.20134 C .00455 -23.91902 .90187 -22.36484 2.00879 -21.72995 L 18.04153 -12.53395 C 19.14845 -11.89905 20.04576 -12.42389 20.04576 -13.7062 L 20.04576 -32.27945 C 20.04576 -33.56177 19.14845 -35.11595 18.04153 -35.75085 Z "/>
<text xml:space="preserve" transform="matrix(.707 -.40552 -0 .81903 26.821808 172.0719)" font-size="9.9626" font-family="CMR10"><tspan y="-37.477" x="91.542 96.5233">12</tspan></text>
<path transform="matrix(1,0,0,-1,85.039,70.866)" d="M 30.06178 29.083 L 38.07814 24.485 C 39.18506 23.8501 39.18506 22.82074 38.07814 22.18585 L 22.04544 12.98987 C 20.93852 12.35498 19.1439 12.35498 18.03699 12.98987 L 2.00421 22.18584 C .8973 22.82072 .8973 23.85008 2.00421 24.48499 L 18.03696 33.68097 C 19.14388 34.31586 20.93849 34.31586 22.04541 33.68097 Z " fill="#ca4137"/>
<path transform="matrix(1,0,0,-1,85.039,70.866)" stroke-width=".79701" stroke-linecap="butt" stroke-miterlimit="10" stroke-linejoin="miter" fill="none" stroke="#000000" d="M 30.06178 29.083 L 38.07814 24.485 C 39.18506 23.8501 39.18506 22.82074 38.07814 22.18585 L 22.04544 12.98987 C 20.93852 12.35498 19.1439 12.35498 18.03699 12.98987 L 2.00421 22.18584 C .8973 22.82072 .8973 23.85008 2.00421 24.48499 L 18.03696 33.68097 C 19.14388 34.31586 20.93849 34.31586 22.04541 33.68097 Z "/>
<text xml:space="preserve" transform="matrix(.707 -.40552 .707 .40552 94.67305 129.81058)" font-size="9.9626" font-family="CMR10"><tspan y="-90.879" x="103.828 108.8093">25</tspan></text>
<path transform="matrix(1,0,0,-1,85.039,70.866)" d="M -10.02516 -17.13194 L -2.00882 -21.72993 C -.9019 -22.36482 -.00458 -21.84 -.00458 -20.55768 L -.00455 -1.98445 C -.00455 -.70215 -.90187 .85204 -2.00879 1.48692 L -18.04153 10.68292 C -19.14845 11.31783 -20.04576 10.79298 -20.04576 9.51067 L -20.04576 -9.06256 C -20.04576 -10.34488 -19.14845 -11.89906 -18.04153 -12.53397 Z " fill="#414141"/>
<path transform="matrix(1,0,0,-1,85.039,70.866)" stroke-width=".79701" stroke-linecap="butt" stroke-miterlimit="10" stroke-linejoin="miter" fill="none" stroke="#000000" d="M -10.02516 -17.13194 L -2.00882 -21.72993 C -.9019 -22.36482 -.00458 -21.84 -.00458 -20.55768 L -.00455 -1.98445 C -.00455 -.70215 -.90187 .85204 -2.00879 1.48692 L -18.04153 10.68292 C -19.14845 11.31783 -20.04576 10.79298 -20.04576 9.51067 L -20.04576 -9.06256 C -20.04576 -10.34488 -19.14845 -11.89906 -18.04153 -12.53397 Z "/>
<text xml:space="preserve" transform="matrix(.707 .40552 -0 .81903 21.463128 100.49449)" font-size="9.9626" font-family="CMR10"><tspan y="-63.723" x="73.253">2</tspan></text>
<path transform="matrix(1,0,0,-1,85.039,70.866)" d="M 10.02516 -17.13194 L 2.00882 -21.72993 C .9019 -22.36482 .00458 -21.84 .00458 -20.55768 L .00455 -1.98445 C .00455 -.70215 .90187 .85204 2.00879 1.48692 L 18.04153 10.68292 C 19.14845 11.31783 20.04576 10.79298 20.04576 9.51067 L 20.04576 -9.06256 C 20.04576 -10.34488 19.14845 -11.89906 18.04153 -12.53397 Z " fill="#ffffff"/>
<path transform="matrix(1,0,0,-1,85.039,70.866)" stroke-width=".79701" stroke-linecap="butt" stroke-miterlimit="10" stroke-linejoin="miter" fill="none" stroke="#000000" d="M 10.02516 -17.13194 L 2.00882 -21.72993 C .9019 -22.36482 .00458 -21.84 .00458 -20.55768 L .00455 -1.98445 C .00455 -.70215 .90187 .85204 2.00879 1.48692 L 18.04153 10.68292 C 19.14845 11.31783 20.04576 10.79298 20.04576 9.51067 L 20.04576 -9.06256 C 20.04576 -10.34488 19.14845 -11.89906 18.04153 -12.53397 Z "/>
<text xml:space="preserve" transform="matrix(.707 -.40552 -0 .81903 27.337777 168.40183)" font-size="9.9626" font-family="CMR10"><tspan y="-61.703" x="93.303">9</tspan></text>
<path transform="matrix(1,0,0,-1,85.039,70.866)" d="M 10.02058 17.58789 L 18.03694 12.9899 C 19.14386 12.35501 19.14386 11.32565 18.03694 10.69075 L 2.00426 1.49477 C .89734 .85988 -.89728 .85988 -2.0042 1.49477 L -18.03697 10.69073 C -19.14389 11.32564 -19.14389 12.355 -18.03697 12.98988 L -2.00423 22.18587 C -.89731 22.82076 .89731 22.82076 2.00423 22.18587 Z " fill="#ca4137"/>
<path transform="matrix(1,0,0,-1,85.039,70.866)" stroke-width=".79701" stroke-linecap="butt" stroke-miterlimit="10" stroke-linejoin="miter" fill="none" stroke="#000000" d="M 10.02058 17.58789 L 18.03694 12.9899 C 19.14386 12.35501 19.14386 11.32565 18.03694 10.69075 L 2.00426 1.49477 C .89734 .85988 -.89728 .85988 -2.0042 1.49477 L -18.03697 10.69073 C -19.14389 11.32564 -19.14389 12.355 -18.03697 12.98988 L -2.00423 22.18587 C -.89731 22.82076 .89731 22.82076 2.00423 22.18587 Z "/>
<text xml:space="preserve" transform="matrix(.707 -.40552 .707 .40552 80.67409 128.5171)" font-size="9.9626" font-family="CMR10"><tspan y="-79.384" x="83.787 88.7683">24</tspan></text>
</g>
</g>
</svg>
